<?xml version="1.0" encoding="utf-8"?>
<svg width="28" height="46" viewBox="40 30 28 44" xmlns="http://www.w3.org/2000/svg">
    <path style="fill:#4c4c4c;stroke-width:0.264583" d="M 46.508 71.312 L 45.731 70.498 L 46.595 69.724 L 47.459 68.95 L 54.285 68.95 L 61.11 68.95 L 61.871 69.744 L 62.631 70.538 L 61.871 71.331 L 61.11 72.125 L 54.198 72.125 L 47.285 72.125 L 46.508 71.312 Z" id="path1"/>
    <path style="fill:#4c4c4c;stroke-width:0.264583" d="M 44.724 69.533 L 44.011 68.789 L 44.011 61.778 L 44.011 54.766 L 44.934 53.872 L 45.766 53.023 L 46.363 53.761 L 47.118 54.521 L 47.186 61.404 L 47.186 68.582 L 46.312 69.429 L 45.437 70.277 L 44.724 69.533 Z" id="path2"/>
    <path style="fill:#4c4c4c;stroke-width:0.264583" d="M 62.055 69.4 L 61.209 68.528 L 61.209 61.245 L 61.209 54.234 L 61.942 53.428 L 62.538 52.758 L 63.461 53.607 L 64.384 54.502 L 64.384 61.676 L 64.384 68.851 L 63.642 69.562 L 62.9 70.273 L 62.055 69.4 Z" id="path3"/>
    <path style="fill:#e1e1e1;stroke-width:0.264583" d="M 46.656 53.47 L 46.032 52.807 L 46.791 52.015 L 47.55 51.223 L 54.233 51.223 L 60.915 51.223 L 61.635 51.932 L 62.218 52.573 L 61.623 53.319 L 60.846 54.133 L 54.062 54.133 L 47.279 54.133 L 46.656 53.47 Z" id="path4"/>
    <path style="fill:#4c4c4c;stroke-width:0.264583" d="M 44.857 51.673 L 44.011 50.801 L 44.011 43.653 L 44.011 36.505 L 44.753 35.794 L 45.495 35.084 L 46.341 35.956 L 47.186 36.828 L 47.186 44.112 L 47.118 51.168 L 46.597 51.676 L 46.235 52.137 L 45.832 52.546 L 45.362 52.159 L 44.857 51.673 Z" id="path5"/>
    <path style="fill:#4c4c4c;stroke-width:0.264583" d="M 61.921 51.692 L 61.3 51.08 L 61.209 43.942 L 61.209 36.828 L 62.055 35.956 L 62.9 35.084 L 63.642 35.794 L 64.384 36.505 L 64.384 43.548 L 64.384 50.59 L 63.876 51.095 L 63.549 51.463 L 63.115 51.825 L 62.565 52.281 L 61.921 51.692 Z" id="path6"/>
    <path style="fill:#4c4c4c;stroke-width:0.264583" d="M 46.527 35.614 L 45.768 34.822 L 46.391 34.159 L 47.014 33.496 L 54.198 33.496 L 61.382 33.496 L 62.005 34.159 L 62.628 34.822 L 61.869 35.614 L 61.11 36.406 L 54.198 36.406 L 47.285 36.406 L 46.527 35.614 Z" id="path7"/>
</svg>