<?xml version="1.0" encoding="utf-8"?>
<svg width="35" height="48" viewBox="89 87 35 48" xmlns="http://www.w3.org/2000/svg">
    <g transform="skewX(-8.5)">
    <path style="fill:#e1e1e1;stroke-width:0.264583" d="M 119.011 129.505 L 112.231 129.505 L 111.468 128.708 L 110.704 127.911 L 111.617 127.129 L 112.529 126.346 L 119.38 126.404 L 126.231 126.462 L 126.773 127.189 L 127.315 127.915 L 126.553 128.71 L 125.792 129.505 L 119.011 129.505 Z" id="path1"/>
    <path style="fill:#e1e1e1;stroke-width:0.264583" d="M 110.29 127.388 L 110.077 127.388 L 109.603 126.666 L 109.129 125.943 L 109.55 119.087 L 109.97 112.231 L 110.786 111.415 L 111.602 110.598 L 112.276 111.273 L 112.951 111.947 L 112.675 117.088 L 112.4 122.229 L 112.235 124.15 L 112.07 126.071 L 111.287 126.73 L 110.504 127.388 L 110.29 127.388 Z" id="path2"/>
    <path style="fill:#e1e1e1;stroke-width:0.264583" d="M 127.778 127.388 L 127.578 127.388 L 126.955 126.547 L 126.333 125.705 L 126.772 118.683 L 127.21 111.661 L 127.874 110.998 L 128.537 110.334 L 129.373 111.17 L 130.209 112.005 L 129.768 119.101 L 129.328 126.198 L 128.653 126.793 L 127.978 127.388 L 127.778 127.388 Z" id="path3"/>
    <path style="fill:#e1e1e1;stroke-width:0.264583" d="M 119.929 111.513 L 113.273 111.513 L 112.835 111.029 L 112.397 110.546 L 112.176 110.301 L 112.397 110.087 L 113.108 109.345 L 113.819 108.603 L 120.338 108.603 L 126.857 108.603 L 127.48 109.266 L 128.103 109.929 L 127.344 110.721 L 126.585 111.513 L 119.929 111.513 Z" id="path4"/>
    <path style="fill:#e1e1e1;stroke-width:0.264583" d="M 111.886 109.832 L 111.702 109.661 L 110.955 108.881 L 110.208 108.101 L 110.649 101.01 L 111.091 93.919 L 111.81 93.325 L 112.529 92.731 L 112.723 92.581 L 112.827 92.728 L 113.459 93.583 L 114.091 94.438 L 113.626 101.453 L 113.162 108.468 L 112.601 109.065 L 112.04 109.662 L 111.886 109.832 Z" id="path5"/>
    <path style="fill:#e1e1e1;stroke-width:0.264583" d="M 128.663 109.727 L 128.354 109.397 L 127.922 108.919 L 127.489 108.441 L 127.74 103.429 L 127.991 98.416 L 128.161 96.255 L 128.331 94.093 L 129.101 93.356 L 129.87 92.618 L 130.58 93.328 L 131.289 94.037 L 130.875 100.937 L 130.461 107.837 L 129.714 108.617 L 128.967 109.397 L 128.663 109.727 Z" id="path6"/>
    <path style="fill:#e1e1e1;stroke-width:0.264583" d="M 121.142 93.786 L 114.285 93.786 L 113.708 92.975 L 113.13 92.165 L 113.736 91.52 L 114.341 90.876 L 121.393 90.876 L 128.444 90.876 L 129.086 91.559 L 129.727 92.242 L 128.863 93.014 L 127.999 93.786 L 121.142 93.786 Z" id="path7"/>
  </g>
</svg>